<?xml version="1.0" standalone="no"?>
<!DOCTYPE svg PUBLIC "-//W3C//DTD SVG 20010904//EN"
 "http://www.w3.org/TR/2001/REC-SVG-20010904/DTD/svg10.dtd">
<svg version="1.0" xmlns="http://www.w3.org/2000/svg"
 width="604.000000pt" height="980.000000pt" viewBox="0 0 604.000000 980.000000"
 preserveAspectRatio="xMidYMid meet">
<metadata>
Created by potrace 1.15, written by Peter Selinger 2001-2017
</metadata>
<g transform="translate(0.000000,980.000000) scale(0.100000,-0.100000)"
fill="#000000" stroke="none">
<path d="M2885 9789 c-149 -25 -270 -92 -395 -218 -109 -110 -167 -207 -200
-337 -18 -70 -20 -112 -20 -424 l0 -346 -96 -63 c-293 -192 -526 -520 -614
-866 -38 -150 -52 -302 -48 -545 l3 -205 1505 0 1505 0 3 180 c6 331 -24 533
-108 749 -105 268 -314 528 -552 685 l-97 64 -3 366 -4 366 -27 80 c-68 203
-236 386 -428 467 -124 52 -287 70 -424 47z"/>
<path d="M1340 6023 c-84 -9 -211 -37 -300 -65 -496 -158 -898 -604 -1005
-1116 -33 -161 -36 -336 -33 -1927 4 -1737 0 -1636 69 -1860 139 -452 514
-834 963 -980 229 -74 104 -70 1991 -70 1589 0 1696 1 1785 18 386 74 722 293
962 628 153 213 249 498 260 769 l3 85 -752 3 -753 2 0 375 0 375 755 0 755 0
0 375 0 375 -755 0 -755 0 0 380 0 380 755 0 755 0 0 375 0 375 -755 0 -755 0
0 380 0 380 646 2 646 3 -63 95 c-83 126 -263 306 -389 389 -172 115 -341 188
-538 233 l-97 22 -1680 2 c-924 0 -1696 -1 -1715 -3z"/>
</g>
</svg>
