<svg id="Layer_1" data-name="Layer 1" xmlns="http://www.w3.org/2000/svg" viewBox="0 0 24 24"><title>unlimited-</title><path d="M17.92,7a.31.31,0,1,1-.62,0V4.06H6.7V8.25H17.61a.31.31,0,0,1,0,.62H6.39a.31.31,0,0,1-.31-.31V3.76h0a.31.31,0,0,1,.31-.31H17.61a.31.31,0,0,1,.31.31V7Z"/><path d="M7.68,11.05v-.58h-1v.58Zm.62-.89v1.2h0a.31.31,0,0,1-.31.31H6.39a.31.31,0,0,1-.31-.31v-1.2h0a.31.31,0,0,1,.31-.31H8A.31.31,0,0,1,8.3,10.16Z"/><path d="M9.28,11.37h0v-1.2a.31.31,0,0,1,.31-.31H11.2a.31.31,0,0,1,.31.31h0v1.2a.31.31,0,0,1-.31.31H9.59a.31.31,0,0,1-.31-.31Zm.63-.9v.59h1v-.59Z"/><path d="M15.7,11.37h0v-1.2A.31.31,0,0,1,16,9.85h1.6a.31.31,0,0,1,.31.31h0v1.2a.31.31,0,0,1-.31.31H16a.31.31,0,0,1-.31-.31Zm.62-.9v.59h1v-.59Z"/><path d="M14.09,11.05v-.58h-1v.58Zm.63-.89v1.2h0a.31.31,0,0,1-.31.31H12.8a.31.31,0,0,1-.31-.31v-1.2h0a.31.31,0,0,1,.31-.31h1.61A.31.31,0,0,1,14.72,10.16Z"/><path d="M7.68,13.86v-.58h-1v.58ZM8.3,13v1.19h0a.31.31,0,0,1-.31.31H6.39a.31.31,0,0,1-.31-.31V13h0a.31.31,0,0,1,.31-.31H8A.31.31,0,0,1,8.3,13Z"/><path d="M9.28,14.17h0V13a.31.31,0,0,1,.31-.31H11.2a.31.31,0,0,1,.31.31h0v1.19a.31.31,0,0,1-.31.31H9.59a.31.31,0,0,1-.31-.31Zm.63-.89v.58h1v-.58Z"/><path d="M15.7,14.17h0V13a.31.31,0,0,1,.31-.31h1.6a.31.31,0,0,1,.31.31h0v1.19a.31.31,0,0,1-.31.31H16a.31.31,0,0,1-.31-.31Zm.62-.89v.58h1v-.58Z"/><path d="M14.09,13.86v-.58h-1v.58Zm.63-.89v1.19h0a.31.31,0,0,1-.31.31H12.8a.31.31,0,0,1-.31-.31V13h0a.31.31,0,0,1,.31-.31h1.61A.31.31,0,0,1,14.72,13Z"/><path d="M7.68,16.67v-.58h-1v.58Zm.62-.89V17h0a.31.31,0,0,1-.31.31H6.39A.31.31,0,0,1,6.08,17v-1.2h0a.31.31,0,0,1,.31-.31H8A.31.31,0,0,1,8.3,15.78Z"/><path d="M9.28,17h0V15.78a.31.31,0,0,1,.31-.31H11.2a.31.31,0,0,1,.31.31h0V17a.31.31,0,0,1-.31.31H9.59A.31.31,0,0,1,9.28,17Zm.63-.89v.58h1v-.58Z"/><path d="M7.68,19.48v-.59h-1v.59Zm.62-.9v1.2h0A.31.31,0,0,1,8,20.1H6.39a.31.31,0,0,1-.31-.31v-1.2h0a.31.31,0,0,1,.31-.31H8A.31.31,0,0,1,8.3,18.58Z"/><path d="M9.28,19.79h0v-1.2a.31.31,0,0,1,.31-.31H11.2a.31.31,0,0,1,.31.31h0v1.2a.31.31,0,0,1-.31.31H9.59a.31.31,0,0,1-.31-.31Zm.63-.9v.59h1v-.59Z"/><path d="M17.3,16.67v-.58H13.11v.58Zm.62-.89V17h0a.31.31,0,0,1-.31.31H12.8a.31.31,0,0,1-.31-.31v-1.2h0a.31.31,0,0,1,.31-.31h4.81A.31.31,0,0,1,17.92,15.78Z"/><path d="M17.3,19.48v-.59H13.11v.59Zm.62-.9v1.2h0a.31.31,0,0,1-.31.31H12.8a.31.31,0,0,1-.31-.31v-1.2h0a.31.31,0,0,1,.31-.31h4.81A.31.31,0,0,1,17.92,18.58Z"/><path d="M17.61,2.45H6.39a1.33,1.33,0,0,0-.92.38h0a1.28,1.28,0,0,0-.38.91v16a1.32,1.32,0,0,0,.38.91h0a1.33,1.33,0,0,0,.92.38H17.61a1.3,1.3,0,0,0,1.3-1.29v-16a1.28,1.28,0,0,0-.38-.91l0,0a1.27,1.27,0,0,0-.9-.37ZM6.39,1.83H17.61a1.87,1.87,0,0,1,1.33.55l0,0a1.91,1.91,0,0,1,.56,1.35v16a1.91,1.91,0,0,1-1.92,1.91H6.39A2,2,0,0,1,5,21.14H5a2,2,0,0,1-.56-1.35v-16A1.91,1.91,0,0,1,5,2.4H5A1.88,1.88,0,0,1,6.39,1.83Z"/></svg>